<?xml version="1.0" encoding="UTF-8" standalone="no"?>
<svg width="465px" height="561px" viewBox="0 0 465 561" version="1.1" xmlns="http://www.w3.org/2000/svg" xmlns:xlink="http://www.w3.org/1999/xlink">
    <!-- Generator: Sketch 41 (35326) - http://www.bohemiancoding.com/sketch -->
    <title>dp_logo</title>
    <desc>Created with Sketch.</desc>
    <defs></defs>
    <g id="Page-1" stroke="none" stroke-width="1" fill="none" fill-rule="evenodd">
        <g id="Desktop-HD" transform="translate(-1158.000000, -1375.000000)">
            <g id="dp_logo" transform="translate(1158.000000, 1375.000000)">
                <path d="M464.90339,279.376859 C464.90339,326.80636 457.525578,368.043057 442.769734,403.088187 C428.013889,438.133318 407.066174,467.381071 379.92596,490.832324 C352.785746,514.283577 320.11258,531.674133 281.905483,543.004514 C243.698385,554.334895 201.407715,560 155.032203,560 C132.898437,560 66.0402222,560.932922 66.0402222,560.932922 C36.800404,517.352361 0.0966101695,462.67099 0.0966101695,462.67099 L0.0966101695,13.7729851 C25.3923437,7.97604619 52.2686574,4.28714038 80.7263577,2.70615704 C109.184058,1.12517369 134.479412,0.334693878 156.613179,0.334693878 C202.461696,0.334693878 244.357126,5.73630595 282.300726,16.5396921 C320.244327,27.3430783 352.785746,44.2066477 379.92596,67.1309063 C407.066174,90.0551648 428.013889,119.039425 442.769734,154.084556 C457.525578,189.129686 464.90339,230.89337 464.90339,279.376859 Z" id="D" fill="#AB9CDF"></path>
                <path d="M189.464567,120 C252.876957,120 301.485395,131.548441 335.291339,154.645669 C369.097282,177.742898 386,213.858022 386,262.992126 C386,288.609052 381.485609,310.55109 372.456693,328.818898 C363.427776,347.086706 350.304548,361.994693 333.086614,373.543307 C315.86868,385.091921 294.871515,393.595773 270.094488,399.055118 C245.317461,404.514463 216.971288,407.244094 185.055118,407.244094 L145.370079,407.244094 L145.370079,560.944882 L66,560.944882 L66,130.708661 C84.4777827,126.509165 104.950019,123.674548 127.417323,122.204724 C149.884627,120.734901 170.566835,120 189.464567,120 Z M195.133858,188.661417 C174.976277,188.661417 158.388517,189.291332 145.370079,190.551181 L145.370079,339.212598 L183.795276,339.212598 C222.01069,339.212598 251.406721,333.858321 271.984252,323.149606 C292.561783,312.440891 302.850394,292.178627 302.850394,262.362205 C302.850394,248.083918 300.120762,236.115534 294.661417,226.456693 C289.202072,216.797852 281.643093,209.238872 271.984252,203.779528 C262.325411,198.320183 250.881956,194.435707 237.653543,192.125984 C224.425131,189.816261 210.252044,188.661417 195.133858,188.661417 Z" id="P" fill="#8270CB"></path>
            </g>
        </g>
    </g>
</svg>