<?xml version="1.0" encoding="utf-8"?>
<!-- Generator: Adobe Illustrator 21.0.2, SVG Export Plug-In . SVG Version: 6.00 Build 0)  -->
<svg version="1.1" id="Layer_1" xmlns="http://www.w3.org/2000/svg" xmlns:xlink="http://www.w3.org/1999/xlink" x="0px" y="0px"
	 viewBox="0 0 24 21.8" style="enable-background:new 0 0 24 21.8;" xml:space="preserve">
<style type="text/css">
	.st0{fill:none;stroke:#000000;stroke-width:0.75;stroke-miterlimit:10;}
</style>
<title>40 - Adobe Illustrator (Outline)</title>
<desc>Created with Sketch.</desc>
<g>
	<g>
		<g>
			<path d="M12,11.9L10.5,7l-1.4,4.8H12z M14.8,16.9h-1.4l-1.2-3.8H8.8l-1.1,3.8H6.3L9.8,5.1h1.4L14.8,16.9z"/>
			<path d="M16.4,16.9h1.2V8.5h-1.2V16.9z M17.7,5.6c0,0.2-0.1,0.4-0.2,0.5c-0.1,0.1-0.3,0.2-0.5,0.2c-0.2,0-0.3-0.1-0.5-0.2
				c-0.1-0.1-0.2-0.3-0.2-0.5c0-0.2,0.1-0.3,0.2-0.5C16.7,5,16.8,4.9,17,4.9c0.2,0,0.3,0.1,0.5,0.2C17.6,5.3,17.7,5.4,17.7,5.6
				L17.7,5.6z"/>
		</g>
		<path class="st0" d="M21.5,20.9h-19c-1.1,0-2-0.9-2-2v-16c0-1.1,0.9-2,2-2h19c1.1,0,2,0.9,2,2v16C23.5,20,22.6,20.9,21.5,20.9z"/>
	</g>
</g>
</svg>
