<?xml version="1.0" encoding="UTF-8" standalone="no"?>
<svg width="54px" height="54px" viewBox="0 0 54 54" version="1.1" xmlns="http://www.w3.org/2000/svg" xmlns:xlink="http://www.w3.org/1999/xlink">
    <!-- Generator: Sketch 41 (35326) - http://www.bohemiancoding.com/sketch -->
    <title>project_design</title>
    <desc>Created with Sketch.</desc>
    <defs></defs>
    <g id="Page-1" stroke="none" stroke-width="1" fill="none" fill-rule="evenodd">
        <g id="Icons" transform="translate(-531.000000, -415.000000)" fill="#000000">
            <g id="project_design" transform="translate(558.000000, 442.000000) scale(-1, -1) translate(-558.000000, -442.000000) translate(531.000000, 415.000000)">
                <g id="Group">
                    <path d="M49.8,0.6 L12.6,0.6 C10.6152,0.6 9,2.2152 9,4.2 L9,41.4 C9,43.3848 10.6152,45 12.6,45 L49.8,45 C51.7848,45 53.4,43.3848 53.4,41.4 L53.4,4.2 C53.4,2.2152 51.7848,0.6 49.8,0.6 Z M51,41.4 C51,42.0624 50.4612,42.6 49.8,42.6 L12.6,42.6 C11.9388,42.6 11.4,42.0624 11.4,41.4 L11.4,4.2 C11.4,3.5376 11.9388,3 12.6,3 L49.8,3 C50.4612,3 51,3.5376 51,4.2 L51,41.4 Z M42.6,49.8 C42.6,50.4624 42.0612,51 41.4,51 L4.2,51 C3.5388,51 3,50.4624 3,49.8 L3,12.6 C3,11.9376 3.5388,11.4 4.2,11.4 L5.4,11.4 L5.4,9 L4.2,9 C2.2152,9 0.6,10.6152 0.6,12.6 L0.6,49.8 C0.6,51.7848 2.2152,53.4 4.2,53.4 L41.4,53.4 C43.3848,53.4 45,51.7848 45,49.8 L45,48.6 L42.6,48.6 L42.6,49.8 Z" id="Shape"></path>
                </g>
            </g>
        </g>
    </g>
</svg>