<?xml version="1.0" encoding="UTF-8" standalone="no"?>
<svg width="73px" height="53px" viewBox="0 0 73 53" version="1.1" xmlns="http://www.w3.org/2000/svg" xmlns:xlink="http://www.w3.org/1999/xlink">
    <!-- Generator: Sketch 41 (35326) - http://www.bohemiancoding.com/sketch -->
    <title>prototyping@2x</title>
    <desc>Created with Sketch.</desc>
    <defs></defs>
    <g id="Page-1" stroke="none" stroke-width="1" fill="none" fill-rule="evenodd">
        <g id="Icons" transform="translate(-1020.000000, -415.000000)" fill="#000000">
            <g id="prototyping" transform="translate(1020.000000, 415.000000)">
                <g id="Group">
                    <ellipse id="Oval" cx="7.62444444" cy="6.84923077" rx="1.78444444" ry="1.79384615"></ellipse>
                    <ellipse id="Oval" cx="13.3833333" cy="6.84923077" rx="1.78444444" ry="1.79384615"></ellipse>
                    <ellipse id="Oval" cx="19.0611111" cy="6.84923077" rx="1.78444444" ry="1.79384615"></ellipse>
                    <path d="M57.1022222,34.5723077 L15.6544444,34.5723077 C15.0055556,34.5723077 14.4377778,34.0015385 14.4377778,33.3492308 C14.4377778,32.6969231 15.0055556,32.1261538 15.6544444,32.1261538 L57.1022222,32.1261538 C57.7511111,32.1261538 58.3188889,32.6969231 58.3188889,33.3492308 C58.3188889,34.0015385 57.7511111,34.5723077 57.1022222,34.5723077 Z" id="Shape"></path>
                    <path d="M50.2077778,40.28 L22.63,40.28 C21.9811111,40.28 21.4133333,39.7092308 21.4133333,39.0569231 C21.4133333,38.4046154 21.9811111,37.8338462 22.63,37.8338462 L50.2077778,37.8338462 C50.8566667,37.8338462 51.4244444,38.4046154 51.4244444,39.0569231 C51.4244444,39.7092308 50.8566667,40.28 50.2077778,40.28 Z" id="Shape"></path>
                    <path d="M65.9433333,52.2661538 L6.81333333,52.2661538 C3.16333333,52.2661538 0.162222222,49.2492308 0.162222222,45.58 L0.162222222,6.76769231 C0.162222222,3.09846154 3.16333333,0.0815384615 6.81333333,0.0815384615 L65.9433333,0.0815384615 C69.5933333,0.0815384615 72.5944444,3.09846154 72.5944444,6.76769231 L72.5944444,45.58 C72.5944444,49.3307692 69.5933333,52.2661538 65.9433333,52.2661538 Z M6.81333333,2.60923077 C4.54222222,2.60923077 2.59555556,4.48461538 2.59555556,6.84923077 L2.59555556,45.6615385 C2.59555556,47.9446154 4.46111111,49.9015385 6.81333333,49.9015385 L65.9433333,49.9015385 C68.2144444,49.9015385 70.1611111,48.0261538 70.1611111,45.6615385 L70.1611111,6.84923077 C70.1611111,4.56615385 68.2955556,2.60923077 65.9433333,2.60923077 L6.81333333,2.60923077 Z" id="Shape"></path>
                    <path d="M36.4188889,29.1907692 C32.4444444,29.1907692 29.2,25.9292308 29.2,21.9338462 C29.2,17.9384615 32.4444444,14.6769231 36.4188889,14.6769231 C40.3933333,14.6769231 43.6377778,17.9384615 43.6377778,21.9338462 C43.6377778,25.9292308 40.3933333,29.1907692 36.4188889,29.1907692 Z M36.4188889,17.1230769 C33.7422222,17.1230769 31.6333333,19.3246154 31.6333333,21.9338462 C31.6333333,24.6246154 33.8233333,26.7446154 36.4188889,26.7446154 C39.0955556,26.7446154 41.2044444,24.5430769 41.2044444,21.9338462 C41.2044444,19.3246154 39.0144444,17.1230769 36.4188889,17.1230769 Z" id="Shape"></path>
                </g>
            </g>
        </g>
    </g>
</svg>