<?xml version="1.0" encoding="UTF-8" standalone="no"?>
<svg width="88px" height="54px" viewBox="0 0 88 54" version="1.1" xmlns="http://www.w3.org/2000/svg" xmlns:xlink="http://www.w3.org/1999/xlink">
    <!-- Generator: Sketch 41 (35326) - http://www.bohemiancoding.com/sketch -->
    <title>_design</title>
    <desc>Created with Sketch.</desc>
    <defs></defs>
    <g id="Page-1" stroke="none" stroke-width="1" fill="none" fill-rule="evenodd">
        <g id="Icons" transform="translate(-362.000000, -415.000000)" fill="#000000">
            <g id="_design" transform="translate(362.000000, 415.000000)">
                <g id="Group">
                    <g id="Shape">
                        <path d="M58.2,48.8 L36.2,48.8 C35.4,48.8 34.7,49.5 34.7,50.3 C34.7,51.1 35.4,51.8 36.2,51.8 L58.2,51.8 C59,51.8 59.7,51.1 59.7,50.3 C59.7,49.5 59,48.8 58.2,48.8 Z"></path>
                        <path d="M84.7,31.2 L82,31.2 L82,8.7 C82,4.2 78.4,0.6 73.9,0.6 L20.4,0.6 C15.9,0.6 12.3,4.2 12.3,8.7 L12.3,15 L5.2,15 C2.5,15 0.4,17.2 0.4,19.8 L0.4,48.5 C0.4,51.2 2.6,53.3 5.2,53.3 L21.4,53.3 C24.1,53.3 26.2,51.1 26.2,48.5 L26.2,47 L73.9,47 L73.9,49.8 C73.9,51.5 75.2,52.9 76.8,52.9 L84.7,52.9 C86.3,52.9 87.6,51.5 87.6,49.8 L87.6,34.2 C87.5,32.5 86.2,31.2 84.7,31.2 Z M15,51.3 C14.8,51.7 14.5,52 14,52 L11.9,52 C11.5,52 11.1,51.7 11,51.3 C11,51.2 10.9,51.1 10.9,51 C10.9,50.4 11.3,50 11.9,50 L14,50 C14.6,50 15,50.4 15,51 L15,51.3 Z M24.2,45 L24.2,47 L24.2,48.5 L24.2,48.5 L2.3,48.5 L2.3,48.5 L2.3,19.8 C2.3,18.2 3.6,17 5.1,17 L12.2,17 L14.2,17 L21.2,17 C22.8,17 24,18.3 24,19.8 L24,45 L24.2,45 Z M73.9,34.2 L73.9,45 L26.2,45 L26.2,19.8 C26.2,17.1 24,15 21.4,15 L14.4,15 L14.4,8.8 C14.4,5.4 17.1,2.7 20.5,2.7 L74,2.7 C77.4,2.7 80.1,5.4 80.1,8.8 L80.1,31.2 L76.8,31.2 C75.2,31.2 73.9,32.5 73.9,34.2 Z M81.4,50.9 C81.3,51 81.2,51.1 81,51.1 L80.5,51.1 C80.3,51.1 80.2,51 80.1,50.9 C80.1,50.8 80,50.7 80,50.6 C80,50.3 80.2,50.1 80.5,50.1 L81,50.1 C81.3,50.1 81.5,50.3 81.5,50.6 C81.5,50.7 81.4,50.8 81.4,50.9 Z M85.5,48.8 L75.9,48.8 L75.9,46.8 L75.9,44.7 L75.9,35 L80,35 L82,35 L85.5,35 L85.5,48.8 Z"></path>
                    </g>
                </g>
            </g>
        </g>
    </g>
</svg>