<?xml version="1.0" encoding="UTF-8" standalone="no"?>
<svg width="46px" height="40px" viewBox="0 0 46 40" version="1.1" xmlns="http://www.w3.org/2000/svg" xmlns:xlink="http://www.w3.org/1999/xlink">
    <!-- Generator: Sketch 41 (35326) - http://www.bohemiancoding.com/sketch -->
    <title>sketch_3</title>
    <desc>Created with Sketch.</desc>
    <defs></defs>
    <g id="Page-1" stroke="none" stroke-width="1" fill="none" fill-rule="evenodd">
        <g id="Icons" transform="translate(-687.000000, -416.000000)" fill="#000000">
            <g id="sketch_3" transform="translate(687.000000, 416.000000)">
                <g id="Group">
                    <g id="Shape">
                        <path d="M30.544,14.6125714 C30.3181818,14.6125714 30.1090909,14.4851429 29.9893864,14.276 L22.4955682,1.14342857 C22.3701136,0.923428571 22.3633182,0.646285714 22.4788409,0.418857143 C22.5938409,0.192 22.8128636,0.0508571429 23.0501818,0.0508571429 L37.94425,0.0485714286 C38.1810455,0.0485714286 38.3990227,0.188571429 38.5145455,0.414857143 C38.6305909,0.641142857 38.6248409,0.917142857 38.5009545,1.13771429 L31.1001818,14.2731429 C30.9815227,14.4834286 30.7719091,14.6125714 30.5455682,14.6131429 C30.5450455,14.6125714 30.5445227,14.6125714 30.544,14.6125714 Z M24.2278864,1.48 L30.5403409,12.5422857 L36.7743864,1.47771429 L24.2278864,1.48 Z"></path>
                        <path d="M15.6018409,14.6125714 C15.3765455,14.6125714 15.1679773,14.4857143 15.0482727,14.2777143 L7.51525,1.14514286 C7.38875,0.925142857 7.38195455,0.647428571 7.49695455,0.419428571 C7.61195455,0.192571429 7.83097727,0.0508571429 8.06881818,0.0508571429 L23.0501818,0.0485714286 C23.2869773,0.0485714286 23.5054773,0.189142857 23.621,0.415428571 C23.7365227,0.641714286 23.7307727,0.919428571 23.6058409,1.13942857 L16.1569773,14.2742857 C16.0377955,14.484 15.8287045,14.612 15.6028864,14.6125714 C15.6028864,14.6125714 15.6023636,14.6125714 15.6018409,14.6125714 Z M9.24913636,1.48 L15.5981818,12.5485714 L21.8761364,1.47771429 L9.24913636,1.48 Z"></path>
                        <path d="M15.6117727,14.6125714 C15.6091591,14.6125714 15.6049773,14.6131429 15.6013182,14.6125714 L0.728681818,14.6125714 C0.492409091,14.6125714 0.274431818,14.4731429 0.158909091,14.2474286 C0.0428636364,14.0217143 0.0475681818,13.7462857 0.170931818,13.5257143 L7.51106818,0.390857143 C7.62920455,0.179428571 7.83829545,0.0502857143 8.06515909,0.0485714286 L8.06881818,0.0485714286 C8.29411364,0.0485714286 8.50268182,0.175428571 8.62238636,0.383428571 L16.1020909,13.424 C16.2040227,13.5502857 16.2657045,13.716 16.2657045,13.8977143 C16.2651818,14.2931429 15.9729773,14.6125714 15.6117727,14.6125714 Z M1.89331818,13.184 L14.421,13.184 L8.07561364,2.12057143 L1.89331818,13.184 Z"></path>
                        <path d="M30.5539318,14.6125714 C30.5513182,14.6125714 30.5476591,14.6131429 30.5434773,14.6125714 L15.6018409,14.6125714 C15.3650455,14.6125714 15.1465455,14.472 15.0310227,14.2457143 C14.9155,14.0194286 14.92125,13.7417143 15.0461818,13.5217143 L22.4945227,0.386857143 C22.6137045,0.177142857 22.8233182,0.0491428571 23.0491364,0.0485714286 L23.0501818,0.0485714286 C23.276,0.0485714286 23.4850909,0.176 23.6047955,0.385142857 L31.0447727,13.4251429 C31.1461818,13.5514286 31.2078636,13.7165714 31.2078636,13.8977143 C31.2073409,14.2931429 30.9151364,14.6125714 30.5539318,14.6125714 Z M16.7753636,13.184 L29.3662955,13.184 L23.05175,2.116 L16.7753636,13.184 Z"></path>
                        <path d="M45.2953636,14.6125714 C45.29275,14.6125714 45.2885682,14.6131429 45.2849091,14.6125714 L30.544,14.6125714 C30.3072045,14.6125714 30.0892273,14.4725714 29.9731818,14.2462857 C29.8576591,14.02 29.8634091,13.744 29.9872955,13.5234286 L37.3875455,0.388571429 C37.5067273,0.177142857 37.7173864,0.0485714286 37.9437273,0.0485714286 L37.9447727,0.0485714286 C38.1721591,0.0491428571 38.3828182,0.178857143 38.5009545,0.390857143 L45.7888182,13.4302857 C45.8881364,13.5554286 45.94825,13.7188571 45.94825,13.8977143 C45.9487727,14.2931429 45.6565682,14.6125714 45.2953636,14.6125714 Z M31.7138636,13.184 L44.1202727,13.184 L37.9421591,2.12971429 L31.7138636,13.184 Z"></path>
                        <path d="M23.1332955,39.9508571 C22.9560909,39.9508571 22.7867273,39.872 22.6638864,39.7331429 L0.245159091,14.3948571 C0.0627272727,14.1891429 0.0109772727,13.8828571 0.113431818,13.6194286 C0.215363636,13.3554286 0.452159091,13.184 0.714568182,13.184 L45.2854318,13.184 C45.5467955,13.184 45.7830682,13.3548571 45.8860455,13.6177143 C45.9885,13.8805714 45.9383182,14.1851429 45.7574545,14.3914286 L23.6053182,39.7297143 C23.483,39.8702857 23.3125909,39.9502857 23.1353864,39.9508571 L23.1332955,39.9508571 Z M2.25556818,14.6125714 L23.1301591,38.2057143 L43.7569773,14.6125714 L2.25556818,14.6125714 Z"></path>
                        <path d="M23.1332955,39.9508571 C22.8578182,39.9508571 22.6011591,39.7588571 22.5122955,39.4577143 L14.9803182,14.1194286 C14.8684545,13.744 15.0566364,13.3411429 15.3995455,13.2194286 C15.7445455,13.0971429 16.1120227,13.3028571 16.2228409,13.6777143 L23.7542955,39.016 C23.8661591,39.3914286 23.6779773,39.7942857 23.3350682,39.916 C23.2681591,39.94 23.2002045,39.9508571 23.1332955,39.9508571 Z"></path>
                        <path d="M23.15525,39.9508571 C23.0899091,39.9508571 23.023,39.94 22.9566136,39.9171429 C22.6131818,39.7971429 22.4229091,39.3954286 22.5321591,39.0194286 L29.9209091,13.6811429 C30.0306818,13.3062857 30.3945,13.0977143 30.7421136,13.2171429 C31.0855455,13.3371429 31.2758182,13.7388571 31.1665682,14.1148571 L23.7778182,39.4537143 C23.6889545,39.7571429 23.4322955,39.9508571 23.15525,39.9508571 Z"></path>
                    </g>
                </g>
            </g>
        </g>
    </g>
</svg>